<?xml version="1.0" encoding="iso-8859-1"?>
<!-- Generator: Adobe Illustrator 19.0.0, SVG Export Plug-In . SVG Version: 6.00 Build 0)  -->
<svg version="1.1" id="Capa_1" xmlns="http://www.w3.org/2000/svg" xmlns:xlink="http://www.w3.org/1999/xlink" x="0px" y="0px"
	 viewBox="0 0 512 512" style="enable-background:new 0 0 512 512;" xml:space="preserve">
<g>
	<g>
		<rect x="482" y="241" width="30" height="30"/>
	</g>
</g>
<g>
	<g>
		<rect x="362" y="241" width="30" height="30"/>
	</g>
</g>
<g>
	<g>
		<rect x="422" y="241" width="30" height="30"/>
	</g>
</g>
<g>
	<g>
		<path d="M172.5,0C77.383,0,0,77.383,0,172.5v212C0,454.804,57.196,512,127.5,512S255,454.804,255,384.5v-15.792l64.92-106.593
			C336.328,235.176,345,204.187,345,172.5C345,77.383,267.617,0,172.5,0z M294.298,246.51L225,360.292V384.5
			c0,53.762-43.738,97.5-97.5,97.5C73.738,482,30,438.262,30,384.5v-212C30,93.925,93.925,30,172.5,30S315,93.925,315,172.5
			C315,198.681,307.841,224.273,294.298,246.51z"/>
	</g>
</g>
<g>
	<g>
		<path d="M172.5,60C110.467,60,60,110.467,60,172.5v61h15c24.813,0,45,20.187,45,45s-20.187,45-45,45H60v61
			c0,37.22,30.28,67.5,67.5,67.5c37.22,0,67.5-30.28,67.5-67.5v-32.625l73.676-120.97C279.355,213.371,285,193.175,285,172.5
			C285,110.467,234.533,60,172.5,60z M195,294.201l-30,49.258V384.5c0,20.678-16.822,37.5-37.5,37.5S90,405.178,90,384.5v-32.507
			c34.191-6.97,60-37.274,60-73.493c0-36.219-25.809-66.523-60-73.493V172.5c0-4.403,0.355-8.724,1.023-12.942
			C150.224,167.343,195,217.44,195,278.5V294.201z M243.054,215.3l-20.852,34.238c-5.527-28.235-19.112-54.339-39.591-75.44
			c-22.191-22.864-50.487-37.824-81.264-43.278C115.694,106.422,142.208,90,172.5,90c45.491,0,82.5,37.01,82.5,82.5
			C255,187.669,250.869,202.469,243.054,215.3z"/>
	</g>
</g>
<g>
</g>
<g>
</g>
<g>
</g>
<g>
</g>
<g>
</g>
<g>
</g>
<g>
</g>
<g>
</g>
<g>
</g>
<g>
</g>
<g>
</g>
<g>
</g>
<g>
</g>
<g>
</g>
<g>
</g>
</svg>
